<svg width="226" height="59" viewBox="0 0 226 59" fill="none" xmlns="http://www.w3.org/2000/svg">
<path d="M23.7773 58.6612C18.6448 57.5984 13.8556 55.2275 10.0959 51.8884C0.443655 43.3158 -2.5394 29.8489 2.55965 17.8664C3.81184 14.9238 5.84756 11.9374 8.36989 9.34302L10.5936 7.05573L10.7505 20.4431C10.9006 33.2573 10.9344 33.9028 11.5406 35.5176C12.7532 38.748 14.0533 40.8048 16.2913 43.0337C22.0725 48.7911 30.5524 50.228 37.761 46.6717C44.5366 43.3289 48.8082 36.0605 48.3119 28.7187C47.9784 23.7871 46.32 20.1708 42.7393 16.5678C40.0317 13.8433 36.8462 12.0637 33.3781 11.338C29.8495 10.5997 30.0188 10.4918 30.0188 13.4785V16.057L31.9533 16.4134C39.4449 17.7938 44.3997 25.1504 42.8381 32.5747C42.3394 34.9459 41.227 37.0398 39.4412 38.9687C36.7274 41.8999 32.9094 43.301 29.5755 43.2945C24.063 43.2839 19.4599 40.1514 17.2289 35.519C17.2289 35.519 16.6445 34.195 16.4567 33.3768C15.3522 28.565 16.0581 18.4358 16.0581 18.4358L15.9726 3.62526L16.8469 3.17314C17.3278 2.92446 17.789 2.721 17.8718 2.721C17.9546 2.721 18.0597 9.52348 18.1054 17.8376C18.1054 17.8376 17.0437 28.7363 18.3557 32.9129C18.545 33.5155 18.9044 34.5461 18.9044 34.5461C20.0546 36.8894 21.898 38.9506 24.2932 40.0852C26.1114 40.9464 27.0268 41.3361 29.7167 41.3361C31.4741 41.3361 33.0311 40.7814 34.8226 39.9574C36.9344 38.9862 39.357 36.411 40.2523 34.0597C42.7188 27.5817 39.2843 20.6122 32.6678 18.6688C29.9637 17.8745 30.0188 17.8308 30.0188 20.7711V23.3395L31.3169 23.6867C35.9957 24.9381 37.4233 31.2094 33.7503 34.4317C32.4526 35.5702 31.2833 36.0735 29.2377 36.0735C27.052 36.0735 24.9539 34.7505 23.8753 32.7214C23.2274 31.5025 23.1727 30.3463 23.1727 29.8168C23.1727 24.9255 23.0668 16.1287 23.0668 16.1287L22.9793 1.03895L23.651 0.872116C24.0204 0.780353 25.5137 0.553297 26.9693 0.367546C31.9058 -0.262419 39.2092 1.35312 44.1157 4.16042C50.805 7.98775 55.8666 14.5625 57.974 22.1619C58.6989 24.7759 58.7797 25.536 58.7797 29.741C58.7797 33.9273 58.6971 34.7125 57.9875 37.2694C55.1212 47.5979 47.83 54.9814 37.4045 58.1128C35.2104 58.7718 34.1826 58.8975 30.3109 58.9801C27.1866 59.0467 25.1615 58.9479 23.7773 58.6612Z" fill="#C60C30"/>
<path d="M224.854 27.3994C225.22 27.6841 225.551 28.0043 225.9 28.3067C225.9 26.5277 225.9 24.7487 225.9 22.9697C223.808 21.6355 221.525 21.2085 219.137 21.6532C214.275 22.5605 211.259 26.67 211.538 31.9003C211.8 36.6858 214.292 40.0482 218.405 41.0444C221.002 41.6671 223.53 41.4002 225.9 40.0659C225.9 38.2869 225.9 36.5079 225.9 34.7289C225.464 35.0669 225.046 35.4405 224.575 35.7252C222.693 36.8815 220.741 37.1484 218.841 35.8675C216.976 34.6044 216.558 32.6475 216.889 30.5305C217.534 26.4032 221.63 24.8199 224.854 27.3994Z" fill="black"/>
<path d="M128.961 40.7421C127.27 40.7421 125.649 40.7421 123.976 40.7421C123.976 34.5333 123.976 28.3424 123.976 22.1159C125.58 22.1159 127.148 22.1159 128.821 22.1159C128.821 25.745 128.821 29.3564 128.821 32.95C128.891 32.9856 128.961 33.0034 129.048 33.039C131.366 29.3742 133.684 25.7273 135.985 22.0803C137.675 22.0803 139.296 22.0803 140.969 22.0803C140.969 28.289 140.969 34.48 140.969 40.7243C139.383 40.7243 137.815 40.7243 136.142 40.7243C136.142 37.0951 136.142 33.5015 136.142 29.9079C136.054 29.8723 135.985 29.8545 135.898 29.819C133.58 33.4659 131.261 37.1307 128.961 40.7421Z" fill="black"/>
<path d="M180.079 22.1335C180.079 25.7805 180.079 29.3741 180.079 32.9677C180.149 32.9855 180.201 33.0033 180.271 33.0388C182.572 29.3919 184.872 25.7627 187.19 22.0979C188.863 22.0979 190.502 22.0979 192.21 22.0979C192.21 28.3245 192.21 34.4976 192.21 40.7419C190.606 40.7419 189.02 40.7419 187.33 40.7419C187.33 37.1128 187.33 33.5192 187.33 29.9256C187.26 29.9078 187.19 29.8722 187.103 29.8544C184.802 33.4836 182.502 37.1305 180.201 40.7775C178.563 40.7775 176.942 40.7775 175.234 40.7775C175.234 34.5866 175.234 28.3956 175.234 22.1513C176.785 22.1335 178.354 22.1335 180.079 22.1335Z" fill="black"/>
<path d="M111.304 29.3919C112.437 29.3919 113.518 29.3029 114.581 29.4097C115.801 29.552 117.073 29.7121 118.223 30.1391C120.193 30.8862 121.117 32.4873 121.204 34.6221C121.291 36.8637 120.663 38.7672 118.607 39.8168C117.701 40.2794 116.637 40.653 115.626 40.6886C112.524 40.7953 109.422 40.7241 106.25 40.7241C106.25 34.5332 106.25 28.36 106.25 22.0979C110.711 22.0979 115.191 22.0979 119.705 22.0979C119.705 23.5389 119.705 24.9621 119.705 26.4743C116.934 26.4743 114.162 26.4743 111.322 26.4743C111.304 27.4705 111.304 28.36 111.304 29.3919ZM111.287 37.1305C112.507 37.0594 113.657 37.0772 114.755 36.8993C115.679 36.757 116.097 36.0454 116.097 35.0847C116.097 34.124 115.679 33.4302 114.755 33.2879C113.622 33.11 112.472 33.1278 111.304 33.0566C111.287 34.462 111.287 35.7073 111.287 37.1305Z" fill="black"/>
<path d="M195.416 22.0979C197.09 22.0979 198.711 22.0979 200.436 22.0979C200.436 24.6241 200.436 27.1147 200.436 29.6054C200.506 29.6231 200.575 29.6587 200.645 29.6765C201.534 28.4134 202.423 27.1503 203.294 25.905C204.183 24.6597 205.055 23.3966 205.978 22.0979C207.913 22.0979 209.865 22.0979 211.991 22.0979C209.639 25.1578 207.373 28.111 205.072 31.1175C207.425 34.3019 209.761 37.4508 212.166 40.7241C209.97 40.7241 207.896 40.7241 205.769 40.7241C204.079 38.1802 202.371 35.5828 200.663 33.0033C200.61 33.021 200.541 33.0388 200.488 33.0566C200.488 35.5828 200.488 38.109 200.488 40.7063C198.78 40.7063 197.142 40.7063 195.434 40.7063C195.416 34.551 195.416 28.3778 195.416 22.0979Z" fill="black"/>
<path d="M158.555 40.7241C158.555 34.5154 158.555 28.36 158.555 22.1513C158.695 22.1157 158.834 22.0623 158.973 22.0623C161.71 22.0623 164.429 22.009 167.165 22.1157C170.633 22.2402 172.934 24.7664 172.951 28.2711C172.969 31.8291 170.651 34.3553 167.165 34.5332C166.05 34.5865 164.917 34.551 163.697 34.551C163.697 36.668 163.697 38.6783 163.697 40.7241C161.954 40.7241 160.315 40.7241 158.555 40.7241ZM163.697 30.477C165.056 30.3881 166.503 30.8862 167.392 29.463C167.88 28.698 167.88 27.7552 167.322 27.0258C166.363 25.7627 164.986 26.243 163.697 26.1541C163.697 27.6306 163.697 28.9827 163.697 30.477Z" fill="black"/>
<path d="M91.6281 23.0408C91.6281 24.7487 91.6281 26.4387 91.6281 28.3067C90.0944 26.7945 88.456 25.8516 86.3471 26.2786C85.2491 26.4921 84.3428 27.0436 83.6805 27.9687C82.1119 30.0857 82.2164 33.4836 83.9071 35.2982C85.7545 37.2729 88.3689 37.1305 91.5933 34.8356C91.5933 36.5791 91.5933 38.2513 91.5933 39.9592C88.4386 42.3964 82.6522 41.667 79.7415 38.447C76.4997 34.8356 76.43 28.2711 79.6195 24.5886C82.5476 21.2084 88.1423 20.4613 91.6281 23.0408Z" fill="black"/>
<path d="M147.224 40.7063C147.224 36.0098 147.224 31.3488 147.224 26.5633C145.865 26.5633 144.575 26.5633 143.216 26.5633C143.216 25.0333 143.216 23.6101 143.216 22.0979C147.573 22.0979 151.913 22.0979 156.305 22.0979C156.305 23.5389 156.305 24.9799 156.305 26.4743C155.015 26.4743 153.743 26.4743 152.383 26.4743C152.383 31.242 152.383 35.9208 152.383 40.6886C150.641 40.7063 148.967 40.7063 147.224 40.7063Z" fill="black"/>
<path d="M66.5117 22.0803C69.0215 22.0803 71.4616 22.0803 73.9713 22.0803C73.9713 28.289 73.9713 34.4622 73.9713 40.7065C72.455 40.7065 70.9387 40.7065 69.3178 40.7065C69.3178 35.9565 69.3178 31.1888 69.3178 26.3321C68.3243 26.3321 67.4529 26.3321 66.5117 26.3321C66.5117 24.8911 66.5117 23.5391 66.5117 22.0803Z" fill="black"/>
<path d="M101.823 31.5267C101.823 33.2346 100.534 34.5511 98.8603 34.5511C97.1523 34.5511 95.8451 33.2168 95.88 31.4556C95.8974 29.7477 97.2046 28.4669 98.8952 28.4669C100.551 28.5024 101.823 29.8189 101.823 31.5267Z" fill="black"/>
</svg>
