<svg width="360" height="42" viewBox="0 0 360 42" fill="none" xmlns="http://www.w3.org/2000/svg">
<path d="M13.4471 39.4903C12.9801 40.1861 11.9684 40.8046 11.1123 40.8046H0.91732C0.0612494 40.8046 -0.250049 40.2634 0.216899 39.5676L13.058 21.2439C13.5249 20.5481 13.5249 19.3884 13.058 18.6926L1.61774 2.4564C1.15079 1.76057 1.46209 1.21937 2.31816 1.21937H13.1358C13.9919 1.21937 15.0036 1.83789 15.4705 2.61104L19.5952 10.1106C19.9843 10.8837 20.6848 10.8837 21.0739 10.1106L25.1986 2.61104C25.5877 1.83789 26.6773 1.21937 27.5333 1.21937H37.6505C38.5066 1.21937 38.8179 1.76057 38.351 2.53372L27.6112 18.1513C27.1442 18.8472 27.1442 20.0069 27.6112 20.7027L40.4522 39.5676C40.9192 40.2634 40.6079 40.882 39.7518 40.882H29.1677C28.3116 40.882 27.2999 40.2634 26.8329 39.5676L21.1517 29.594C20.7626 28.8208 19.9843 28.8208 19.5952 29.594L13.4471 39.4903Z" fill="black"/>
<path d="M204.04 1.21937H212.678C213.534 1.21937 214.235 1.9152 214.235 2.76567C214.235 2.76567 214.235 28.9754 214.235 29.8259C214.235 30.6764 214.935 31.3722 215.791 31.3722C216.647 31.3722 220.85 31.3722 221.706 31.3722C222.562 31.3722 223.262 30.6764 223.262 29.8259C223.262 28.9754 223.262 2.76567 223.262 2.76567C223.262 1.9152 223.963 1.21937 224.819 1.21937H233.457C234.313 1.21937 235.014 1.9152 235.014 2.76567V29.8259C235.014 30.6764 235.714 31.3722 236.57 31.3722H242.485C243.341 31.3722 244.041 30.6764 244.041 29.8259V2.76567C244.041 1.9152 244.742 1.21937 245.598 1.21937H254.236C255.092 1.21937 255.793 1.9152 255.793 2.76567V39.3357C255.793 40.1861 255.092 40.882 254.236 40.882H204.117C203.261 40.882 202.561 40.1861 202.561 39.3357V2.76567C202.561 1.90374 203.152 1.21937 204.04 1.21937Z" fill="black"/>
<path d="M325.446 1.21937H358.444C359.3 1.21937 360 1.9152 360 2.76567V39.3357C360 40.1861 359.3 40.882 358.444 40.882H349.805C348.949 40.882 348.249 40.1861 348.249 39.3357V12.2754C348.249 11.4249 347.548 10.7291 346.692 10.7291H337.12C336.264 10.7291 335.563 11.4249 335.563 12.2754V39.3357C335.563 40.4067 334.64 40.882 333.825 40.882H325.29C324.434 40.882 323.734 40.1861 323.734 39.3357V2.76567C323.734 1.83695 324.556 1.21937 325.446 1.21937Z" fill="black"/>
<path fill-rule="evenodd" clip-rule="evenodd" d="M69.0734 42C83.1289 42 90.621 32.5424 90.621 21.0003C90.621 9.45759 83.0547 0 69.0734 0C54.5718 0 47.3772 9.40196 47.3772 21.0003C47.3772 34.1806 56.3522 42 69.0734 42ZM68.9999 32.4299C74.2794 32.4299 78.5589 28.7085 78.5589 21.0086C78.5589 13.3094 73.7912 9.58803 68.9999 9.58803C64.2086 9.58803 59.2568 13.0032 59.2568 21.0086C59.2568 29.0148 64.471 32.4299 68.9999 32.4299Z" fill="black"/>
<path fill-rule="evenodd" clip-rule="evenodd" d="M168.174 42C182.229 42 189.721 32.5424 189.721 21.0003C189.721 9.45759 182.155 0 168.174 0C153.672 0 146.478 9.40196 146.478 21.0003C146.478 34.1806 155.453 42 168.174 42ZM168.1 32.4299C173.38 32.4299 177.659 28.7085 177.659 21.0086C177.659 13.3094 172.892 9.58803 168.1 9.58803C163.309 9.58803 158.357 13.0032 158.357 21.0086C158.357 29.0148 163.571 32.4299 168.1 32.4299Z" fill="black"/>
<path fill-rule="evenodd" clip-rule="evenodd" d="M290.298 42C304.353 42 311.845 32.5424 311.845 21.0003C311.845 9.45759 304.279 0 290.298 0C275.796 0 268.601 9.40196 268.601 21.0003C268.601 34.1806 277.576 42 290.298 42ZM290.224 32.4299C295.504 32.4299 299.783 28.7085 299.783 21.0086C299.783 13.3094 295.015 9.58803 290.224 9.58803C285.433 9.58803 280.481 13.0032 280.481 21.0086C280.481 29.0148 285.695 32.4299 290.224 32.4299Z" fill="black"/>
<path d="M103.49 2.76567C103.49 1.9152 104.191 1.21937 105.047 1.21937C105.047 1.21937 118.666 1.21937 120.845 1.21937C123.647 1.21937 128.316 2.14715 130.418 3.92539C137.18 9.32121 137 19.6522 130.495 24.9551C128.394 26.8106 125.203 27.7384 120.923 27.7384H116.876C116.02 27.7384 115.32 28.4342 115.32 29.2847V39.2583C115.32 40.1088 114.619 40.8046 113.763 40.8046H105.047C104.191 40.8046 103.49 40.1088 103.49 39.2583V2.76567ZM115.32 17.5336C115.32 18.3841 115.864 19.0018 116.565 19.0018C117.265 19.0018 118.64 18.9198 119.444 18.8472C120.249 18.7746 121.121 18.4212 121.468 18.2287C123.763 16.955 123.887 13.0516 122.564 11.4249C121.573 10.2055 119.833 9.87864 117.966 9.87864H116.876C116.02 9.87864 115.32 10.5745 115.32 11.4249V17.5336Z" fill="black"/>
</svg>
